<mxfile host="app.diagrams.net" modified="2020-06-28T04:14:22.469Z" agent="5.0 (Macintosh; Intel Mac OS X 10_15_4) AppleWebKit/537.36 (KHTML, like Gecko) Chrome/83.0.4103.106 Safari/537.36" etag="06DSBOisL0wLevEevAM8" version="13.3.0" type="github">
  <diagram id="UsODh_B02LaGBhSNhIkN" name="第 1 页">
    <mxGraphModel dx="2178" dy="2062" grid="1" gridSize="10" guides="1" tooltips="1" connect="1" arrows="1" fold="1" page="1" pageScale="1" pageWidth="827" pageHeight="1169" math="0" shadow="0">
      <root>
        <mxCell id="0" />
        <mxCell id="1" parent="0" />
        <mxCell id="_XcDRv5XE8WnniG2f3Z3-3" value="" style="group" vertex="1" connectable="0" parent="1">
          <mxGeometry x="435" y="64" width="320" height="170" as="geometry" />
        </mxCell>
        <mxCell id="_XcDRv5XE8WnniG2f3Z3-1" value="" style="rounded=1;whiteSpace=wrap;html=1;shadow=1;" vertex="1" parent="_XcDRv5XE8WnniG2f3Z3-3">
          <mxGeometry x="-197.1" width="517.1" height="170" as="geometry" />
        </mxCell>
        <mxCell id="_XcDRv5XE8WnniG2f3Z3-18" value="&lt;b&gt;&lt;i&gt;bpf_unsafe_mod_array&lt;/i&gt;&lt;/b&gt;" style="text;html=1;align=center;verticalAlign=middle;resizable=0;points=[];autosize=1;" vertex="1" parent="_XcDRv5XE8WnniG2f3Z3-3">
          <mxGeometry x="-192.10374999999996" y="40" width="150" height="20" as="geometry" />
        </mxCell>
        <mxCell id="_XcDRv5XE8WnniG2f3Z3-2" value="&lt;b&gt;&lt;i&gt;BPF_CALL_1(bpf_unsafe_helper, &lt;/i&gt;&lt;/b&gt;&lt;b&gt;&lt;i&gt;struct bpf_unsafe_ctx *&lt;/i&gt;&lt;/b&gt;&lt;b&gt;&lt;i&gt;, ctx)&lt;/i&gt;&lt;/b&gt;" style="text;html=1;align=center;verticalAlign=middle;resizable=0;points=[];autosize=1;" vertex="1" parent="_XcDRv5XE8WnniG2f3Z3-3">
          <mxGeometry x="-192.09935828877002" width="370" height="20" as="geometry" />
        </mxCell>
        <mxCell id="_XcDRv5XE8WnniG2f3Z3-9" value="&lt;b&gt;&lt;i&gt;rcu_read_lock&lt;/i&gt;&lt;/b&gt;()&lt;br&gt;handler =&amp;nbsp;rcu_dereference(&lt;b&gt;&lt;i&gt;bpf_unsafe_mod_array[1]&lt;/i&gt;&lt;/b&gt;)&lt;br&gt;if handler != NULL&lt;br&gt;handler(ctx)&lt;br&gt;&lt;b&gt;&lt;i&gt;rcu_read_unlock&lt;/i&gt;&lt;/b&gt;()" style="rounded=1;whiteSpace=wrap;html=1;shadow=1;" vertex="1" parent="1">
          <mxGeometry x="370" y="154" width="323.75" height="80" as="geometry" />
        </mxCell>
        <mxCell id="_XcDRv5XE8WnniG2f3Z3-10" value="" style="endArrow=classic;html=1;exitX=0;exitY=0.5;exitDx=0;exitDy=0;entryX=1;entryY=0.5;entryDx=0;entryDy=0;dashed=1;" edge="1" parent="1" source="_XcDRv5XE8WnniG2f3Z3-8">
          <mxGeometry width="50" height="50" relative="1" as="geometry">
            <mxPoint x="510" y="220" as="sourcePoint" />
            <mxPoint x="330" y="170" as="targetPoint" />
            <Array as="points">
              <mxPoint x="400" y="140" />
              <mxPoint x="350" y="140" />
              <mxPoint x="350" y="170" />
            </Array>
          </mxGeometry>
        </mxCell>
        <mxCell id="_XcDRv5XE8WnniG2f3Z3-102" value="①" style="edgeLabel;html=1;align=center;verticalAlign=middle;resizable=0;points=[];" vertex="1" connectable="0" parent="_XcDRv5XE8WnniG2f3Z3-10">
          <mxGeometry x="0.5341" relative="1" as="geometry">
            <mxPoint as="offset" />
          </mxGeometry>
        </mxCell>
        <mxCell id="_XcDRv5XE8WnniG2f3Z3-11" value="" style="endArrow=classic;html=1;exitX=1;exitY=0.75;exitDx=0;exitDy=0;entryX=0;entryY=0.5;entryDx=0;entryDy=0;dashed=1;" edge="1" parent="1" target="_XcDRv5XE8WnniG2f3Z3-9">
          <mxGeometry width="50" height="50" relative="1" as="geometry">
            <mxPoint x="330" y="175" as="sourcePoint" />
            <mxPoint x="560" y="170" as="targetPoint" />
            <Array as="points">
              <mxPoint x="350" y="175" />
              <mxPoint x="350" y="194" />
            </Array>
          </mxGeometry>
        </mxCell>
        <mxCell id="_XcDRv5XE8WnniG2f3Z3-103" value="②" style="edgeLabel;html=1;align=center;verticalAlign=middle;resizable=0;points=[];" vertex="1" connectable="0" parent="_XcDRv5XE8WnniG2f3Z3-11">
          <mxGeometry x="0.0315" relative="1" as="geometry">
            <mxPoint as="offset" />
          </mxGeometry>
        </mxCell>
        <mxCell id="_XcDRv5XE8WnniG2f3Z3-12" value="" style="rounded=1;whiteSpace=wrap;html=1;shadow=1;" vertex="1" parent="1">
          <mxGeometry x="-90" y="-80" width="280" height="410" as="geometry" />
        </mxCell>
        <mxCell id="_XcDRv5XE8WnniG2f3Z3-13" value="&lt;b&gt;&lt;i&gt;mod_2.ko&lt;/i&gt;&lt;/b&gt;" style="text;html=1;align=center;verticalAlign=middle;resizable=0;points=[];autosize=1;" vertex="1" parent="1">
          <mxGeometry x="-80" y="-70" width="70" height="20" as="geometry" />
        </mxCell>
        <mxCell id="_XcDRv5XE8WnniG2f3Z3-14" value="" style="rounded=1;whiteSpace=wrap;html=1;shadow=1;" vertex="1" parent="1">
          <mxGeometry x="240" y="-80" width="510" height="130" as="geometry" />
        </mxCell>
        <mxCell id="_XcDRv5XE8WnniG2f3Z3-15" value="&lt;b&gt;&lt;i&gt;bpf_unsafe_mod_register()&lt;/i&gt;&lt;/b&gt;" style="text;html=1;align=center;verticalAlign=middle;resizable=0;points=[];autosize=1;" vertex="1" parent="1">
          <mxGeometry x="250" y="-80" width="170" height="20" as="geometry" />
        </mxCell>
        <mxCell id="_XcDRv5XE8WnniG2f3Z3-19" value="mutex_lock(&amp;amp;&lt;b&gt;&lt;i&gt;bpf_unsafe_mod_mutex&lt;/i&gt;&lt;/b&gt;)&lt;br&gt;&lt;i&gt;if &lt;b&gt;bpf_unsafe_mod_array&lt;/b&gt;[i] == NULL&lt;br&gt;&lt;/i&gt;rcu_assign_pointer(&lt;i&gt;&lt;b&gt;bpf_unsafe_mod_array&lt;/b&gt;[i], mod_2&lt;/i&gt;)&lt;br&gt;mutex_unlock(&amp;amp;&lt;b&gt;&lt;i&gt;bpf_unsafe_mod_mutex&lt;/i&gt;&lt;/b&gt;)" style="rounded=1;whiteSpace=wrap;html=1;shadow=1;" vertex="1" parent="1">
          <mxGeometry x="425" y="-60" width="315" height="80" as="geometry" />
        </mxCell>
        <mxCell id="_XcDRv5XE8WnniG2f3Z3-20" value="&lt;b&gt;&lt;i&gt;bpf_unsafe_mod_array&lt;/i&gt;&lt;/b&gt;" style="text;html=1;align=center;verticalAlign=middle;resizable=0;points=[];autosize=1;" vertex="1" parent="1">
          <mxGeometry x="260" y="-50" width="150" height="20" as="geometry" />
        </mxCell>
        <mxCell id="_XcDRv5XE8WnniG2f3Z3-21" value="mod_1" style="rounded=1;whiteSpace=wrap;html=1;shadow=1;" vertex="1" parent="1">
          <mxGeometry x="295.00374999999997" y="-20" width="80" height="20" as="geometry" />
        </mxCell>
        <mxCell id="_XcDRv5XE8WnniG2f3Z3-22" value="mod_2" style="rounded=1;whiteSpace=wrap;html=1;shadow=1;dashed=1;" vertex="1" parent="1">
          <mxGeometry x="295.00374999999997" width="80" height="20" as="geometry" />
        </mxCell>
        <mxCell id="_XcDRv5XE8WnniG2f3Z3-23" value="mod_3" style="rounded=1;whiteSpace=wrap;html=1;shadow=1;" vertex="1" parent="1">
          <mxGeometry x="295.00374999999997" y="20" width="80" height="20" as="geometry" />
        </mxCell>
        <mxCell id="_XcDRv5XE8WnniG2f3Z3-24" value="" style="endArrow=classic;html=1;exitX=0;exitY=0.5;exitDx=0;exitDy=0;entryX=1;entryY=0.5;entryDx=0;entryDy=0;dashed=1;" edge="1" parent="1" source="_XcDRv5XE8WnniG2f3Z3-19" target="_XcDRv5XE8WnniG2f3Z3-22">
          <mxGeometry width="50" height="50" relative="1" as="geometry">
            <mxPoint x="410" y="-20" as="sourcePoint" />
            <mxPoint x="460" y="-70" as="targetPoint" />
            <Array as="points">
              <mxPoint x="400" y="-20" />
              <mxPoint x="400" y="10" />
            </Array>
          </mxGeometry>
        </mxCell>
        <mxCell id="_XcDRv5XE8WnniG2f3Z3-25" value="" style="rounded=1;whiteSpace=wrap;html=1;shadow=1;" vertex="1" parent="1">
          <mxGeometry x="240" y="260" width="510" height="130" as="geometry" />
        </mxCell>
        <mxCell id="_XcDRv5XE8WnniG2f3Z3-26" value="&lt;b&gt;&lt;i&gt;bpf_unsafe_mod_unregister()&lt;/i&gt;&lt;/b&gt;" style="text;html=1;align=center;verticalAlign=middle;resizable=0;points=[];autosize=1;" vertex="1" parent="1">
          <mxGeometry x="255" y="260" width="180" height="20" as="geometry" />
        </mxCell>
        <mxCell id="_XcDRv5XE8WnniG2f3Z3-27" value="mutex_lock(&amp;amp;&lt;b&gt;&lt;i&gt;bpf_unsafe_mod_mutex&lt;/i&gt;&lt;/b&gt;)&lt;br&gt;&lt;i&gt;if &lt;b&gt;bpf_unsafe_mod_array&lt;/b&gt;[i] == mod_2&lt;br&gt;&lt;/i&gt;&lt;i&gt;RCU_INIT_POINTER&lt;/i&gt;(&lt;i&gt;&lt;b&gt;bpf_unsafe_mod_array&lt;/b&gt;[i], NULL&lt;/i&gt;)&lt;br&gt;mutex_unlock(&amp;amp;&lt;b&gt;&lt;i&gt;bpf_unsafe_mod_mutex&lt;/i&gt;&lt;/b&gt;)&lt;br&gt;&lt;b&gt;&lt;i&gt;synchronize_rcu()&lt;/i&gt;&lt;/b&gt;" style="rounded=1;whiteSpace=wrap;html=1;shadow=1;" vertex="1" parent="1">
          <mxGeometry x="425" y="280" width="315" height="100" as="geometry" />
        </mxCell>
        <mxCell id="_XcDRv5XE8WnniG2f3Z3-28" value="&lt;b&gt;&lt;i&gt;bpf_unsafe_mod_array&lt;/i&gt;&lt;/b&gt;" style="text;html=1;align=center;verticalAlign=middle;resizable=0;points=[];autosize=1;" vertex="1" parent="1">
          <mxGeometry x="260" y="290" width="150" height="20" as="geometry" />
        </mxCell>
        <mxCell id="_XcDRv5XE8WnniG2f3Z3-29" value="mod_1" style="rounded=1;whiteSpace=wrap;html=1;shadow=1;" vertex="1" parent="1">
          <mxGeometry x="295.00374999999997" y="320" width="80" height="20" as="geometry" />
        </mxCell>
        <mxCell id="_XcDRv5XE8WnniG2f3Z3-30" value="NULL" style="rounded=1;whiteSpace=wrap;html=1;shadow=1;dashed=1;" vertex="1" parent="1">
          <mxGeometry x="295.00374999999997" y="340" width="80" height="20" as="geometry" />
        </mxCell>
        <mxCell id="_XcDRv5XE8WnniG2f3Z3-31" value="mod_3" style="rounded=1;whiteSpace=wrap;html=1;shadow=1;" vertex="1" parent="1">
          <mxGeometry x="295.00374999999997" y="360" width="80" height="20" as="geometry" />
        </mxCell>
        <mxCell id="_XcDRv5XE8WnniG2f3Z3-32" value="" style="endArrow=classic;html=1;entryX=1;entryY=0.5;entryDx=0;entryDy=0;dashed=1;" edge="1" source="_XcDRv5XE8WnniG2f3Z3-27" target="_XcDRv5XE8WnniG2f3Z3-30" parent="1">
          <mxGeometry width="50" height="50" relative="1" as="geometry">
            <mxPoint x="410" y="320" as="sourcePoint" />
            <mxPoint x="460" y="270" as="targetPoint" />
            <Array as="points">
              <mxPoint x="400" y="320" />
              <mxPoint x="400" y="350" />
            </Array>
          </mxGeometry>
        </mxCell>
        <mxCell id="_XcDRv5XE8WnniG2f3Z3-36" value="" style="rounded=1;whiteSpace=wrap;html=1;shadow=1;" vertex="1" parent="1">
          <mxGeometry x="-55" y="244" width="220" height="60" as="geometry" />
        </mxCell>
        <mxCell id="_XcDRv5XE8WnniG2f3Z3-37" value="&lt;b&gt;&lt;i&gt;module_exit(mod_2_exit)&lt;/i&gt;&lt;/b&gt;" style="text;html=1;align=center;verticalAlign=middle;resizable=0;points=[];autosize=1;" vertex="1" parent="1">
          <mxGeometry x="-40" y="244" width="160" height="20" as="geometry" />
        </mxCell>
        <mxCell id="_XcDRv5XE8WnniG2f3Z3-38" value="&lt;span&gt;bpf_unsafe_mod_unregister(mod_2)&lt;/span&gt;" style="rounded=1;whiteSpace=wrap;html=1;shadow=1;" vertex="1" parent="1">
          <mxGeometry x="-50" y="269" width="210" height="30" as="geometry" />
        </mxCell>
        <mxCell id="_XcDRv5XE8WnniG2f3Z3-41" value="" style="rounded=1;whiteSpace=wrap;html=1;shadow=1;" vertex="1" parent="1">
          <mxGeometry x="800" y="-60" width="260" height="260" as="geometry" />
        </mxCell>
        <mxCell id="_XcDRv5XE8WnniG2f3Z3-42" value="&lt;b&gt;&lt;i&gt;mod_2.o&lt;/i&gt;&lt;/b&gt;" style="text;html=1;align=center;verticalAlign=middle;resizable=0;points=[];autosize=1;" vertex="1" parent="1">
          <mxGeometry x="820" y="-60" width="60" height="20" as="geometry" />
        </mxCell>
        <mxCell id="_XcDRv5XE8WnniG2f3Z3-43" value="&lt;span&gt;bpf_unsafe_helper(mod_2_data)&lt;/span&gt;" style="rounded=1;whiteSpace=wrap;html=1;shadow=1;" vertex="1" parent="1">
          <mxGeometry x="840" y="160" width="185" height="30" as="geometry" />
        </mxCell>
        <mxCell id="_XcDRv5XE8WnniG2f3Z3-46" value="&lt;b&gt;&lt;i&gt;eBPF prog&lt;/i&gt;&lt;/b&gt;" style="text;html=1;align=center;verticalAlign=middle;resizable=0;points=[];autosize=1;" vertex="1" parent="1">
          <mxGeometry x="865" y="-80" width="80" height="20" as="geometry" />
        </mxCell>
        <mxCell id="_XcDRv5XE8WnniG2f3Z3-59" value="mod_1" style="rounded=1;whiteSpace=wrap;html=1;shadow=1;" vertex="1" parent="1">
          <mxGeometry x="250.00374999999997" y="140" width="80" height="20" as="geometry" />
        </mxCell>
        <mxCell id="_XcDRv5XE8WnniG2f3Z3-60" value="mod_2" style="rounded=1;whiteSpace=wrap;html=1;shadow=1;dashed=1;" vertex="1" parent="1">
          <mxGeometry x="250.00374999999997" y="160" width="80" height="20" as="geometry" />
        </mxCell>
        <mxCell id="_XcDRv5XE8WnniG2f3Z3-61" value="mod_3" style="rounded=1;whiteSpace=wrap;html=1;shadow=1;" vertex="1" parent="1">
          <mxGeometry x="250.00374999999997" y="180" width="80" height="20" as="geometry" />
        </mxCell>
        <mxCell id="_XcDRv5XE8WnniG2f3Z3-86" value="" style="group" vertex="1" connectable="0" parent="1">
          <mxGeometry x="840" y="-40" width="195" height="190" as="geometry" />
        </mxCell>
        <mxCell id="_XcDRv5XE8WnniG2f3Z3-79" value="" style="rounded=1;whiteSpace=wrap;html=1;shadow=1;" vertex="1" parent="_XcDRv5XE8WnniG2f3Z3-86">
          <mxGeometry width="195" height="190" as="geometry" />
        </mxCell>
        <mxCell id="_XcDRv5XE8WnniG2f3Z3-71" value="" style="rounded=1;whiteSpace=wrap;html=1;shadow=1;" vertex="1" parent="_XcDRv5XE8WnniG2f3Z3-86">
          <mxGeometry x="20" y="30" width="150" height="120" as="geometry" />
        </mxCell>
        <mxCell id="_XcDRv5XE8WnniG2f3Z3-72" value="&lt;span&gt;.ctx = ctx&lt;/span&gt;" style="rounded=1;whiteSpace=wrap;html=1;shadow=1;align=left;" vertex="1" parent="_XcDRv5XE8WnniG2f3Z3-86">
          <mxGeometry x="40" y="60" width="80" height="20" as="geometry" />
        </mxCell>
        <mxCell id="_XcDRv5XE8WnniG2f3Z3-73" value="&lt;b&gt;&lt;i&gt;struct bpf_unsafe_ctx&lt;/i&gt;&lt;/b&gt;" style="text;html=1;align=center;verticalAlign=middle;resizable=0;points=[];autosize=1;" vertex="1" parent="_XcDRv5XE8WnniG2f3Z3-86">
          <mxGeometry x="25" y="30" width="140" height="20" as="geometry" />
        </mxCell>
        <mxCell id="_XcDRv5XE8WnniG2f3Z3-74" value="&lt;span&gt;.mod = 1&lt;/span&gt;" style="rounded=1;whiteSpace=wrap;html=1;shadow=1;align=left;" vertex="1" parent="_XcDRv5XE8WnniG2f3Z3-86">
          <mxGeometry x="40" y="80" width="80" height="20" as="geometry" />
        </mxCell>
        <mxCell id="_XcDRv5XE8WnniG2f3Z3-75" value="&lt;span&gt;.cmd = 0&lt;/span&gt;" style="rounded=1;whiteSpace=wrap;html=1;shadow=1;align=left;" vertex="1" parent="_XcDRv5XE8WnniG2f3Z3-86">
          <mxGeometry x="40" y="100" width="80" height="20" as="geometry" />
        </mxCell>
        <mxCell id="_XcDRv5XE8WnniG2f3Z3-77" value="&lt;span&gt;.data_len = 4&lt;/span&gt;" style="rounded=1;whiteSpace=wrap;html=1;shadow=1;align=left;" vertex="1" parent="_XcDRv5XE8WnniG2f3Z3-86">
          <mxGeometry x="40" y="120" width="80" height="20" as="geometry" />
        </mxCell>
        <mxCell id="_XcDRv5XE8WnniG2f3Z3-81" value="&lt;b&gt;&lt;i&gt;struct mod_2_data&lt;/i&gt;&lt;/b&gt;" style="text;html=1;align=center;verticalAlign=middle;resizable=0;points=[];autosize=1;" vertex="1" parent="_XcDRv5XE8WnniG2f3Z3-86">
          <mxGeometry x="20" width="120" height="20" as="geometry" />
        </mxCell>
        <mxCell id="_XcDRv5XE8WnniG2f3Z3-85" value="&lt;span&gt;u32 data&lt;/span&gt;" style="rounded=1;whiteSpace=wrap;html=1;shadow=1;align=left;" vertex="1" parent="_XcDRv5XE8WnniG2f3Z3-86">
          <mxGeometry x="40" y="160" width="80" height="20" as="geometry" />
        </mxCell>
        <mxCell id="_XcDRv5XE8WnniG2f3Z3-88" value="" style="group" vertex="1" connectable="0" parent="1">
          <mxGeometry x="800" y="230" width="150" height="160" as="geometry" />
        </mxCell>
        <mxCell id="_XcDRv5XE8WnniG2f3Z3-62" value="" style="rounded=1;whiteSpace=wrap;html=1;shadow=1;" vertex="1" parent="_XcDRv5XE8WnniG2f3Z3-88">
          <mxGeometry width="150" height="160" as="geometry" />
        </mxCell>
        <mxCell id="_XcDRv5XE8WnniG2f3Z3-63" value="&lt;span&gt;void *ctx&lt;/span&gt;" style="rounded=1;whiteSpace=wrap;html=1;shadow=1;align=left;" vertex="1" parent="_XcDRv5XE8WnniG2f3Z3-88">
          <mxGeometry x="17.65" y="30" width="72.35" height="20" as="geometry" />
        </mxCell>
        <mxCell id="_XcDRv5XE8WnniG2f3Z3-64" value="&lt;b&gt;&lt;i&gt;struct bpf_unsafe_ctx&lt;/i&gt;&lt;/b&gt;" style="text;html=1;align=center;verticalAlign=middle;resizable=0;points=[];autosize=1;" vertex="1" parent="_XcDRv5XE8WnniG2f3Z3-88">
          <mxGeometry x="5.003529411764706" width="140" height="20" as="geometry" />
        </mxCell>
        <mxCell id="_XcDRv5XE8WnniG2f3Z3-65" value="&lt;span&gt;u16 mod&lt;/span&gt;" style="rounded=1;whiteSpace=wrap;html=1;shadow=1;align=left;" vertex="1" parent="_XcDRv5XE8WnniG2f3Z3-88">
          <mxGeometry x="17.65" y="50" width="72.35" height="20" as="geometry" />
        </mxCell>
        <mxCell id="_XcDRv5XE8WnniG2f3Z3-66" value="&lt;span&gt;u16 cmd&lt;/span&gt;" style="rounded=1;whiteSpace=wrap;html=1;shadow=1;align=left;" vertex="1" parent="_XcDRv5XE8WnniG2f3Z3-88">
          <mxGeometry x="17.65" y="70" width="72.35" height="20" as="geometry" />
        </mxCell>
        <mxCell id="_XcDRv5XE8WnniG2f3Z3-67" value="&lt;span&gt;u16 flags&lt;/span&gt;" style="rounded=1;whiteSpace=wrap;html=1;shadow=1;align=left;" vertex="1" parent="_XcDRv5XE8WnniG2f3Z3-88">
          <mxGeometry x="17.65" y="90" width="72.35" height="20" as="geometry" />
        </mxCell>
        <mxCell id="_XcDRv5XE8WnniG2f3Z3-68" value="&lt;span&gt;u16 data_len&lt;/span&gt;" style="rounded=1;whiteSpace=wrap;html=1;shadow=1;align=left;" vertex="1" parent="_XcDRv5XE8WnniG2f3Z3-88">
          <mxGeometry x="17.65" y="110" width="72.35" height="20" as="geometry" />
        </mxCell>
        <mxCell id="_XcDRv5XE8WnniG2f3Z3-69" value="&lt;span&gt;char data[0]&lt;/span&gt;" style="rounded=1;whiteSpace=wrap;html=1;shadow=1;align=left;" vertex="1" parent="_XcDRv5XE8WnniG2f3Z3-88">
          <mxGeometry x="17.65" y="130" width="72.35" height="20" as="geometry" />
        </mxCell>
        <mxCell id="_XcDRv5XE8WnniG2f3Z3-90" value="" style="rounded=1;whiteSpace=wrap;html=1;shadow=1;" vertex="1" parent="1">
          <mxGeometry x="-60" y="-40" width="220" height="60" as="geometry" />
        </mxCell>
        <mxCell id="_XcDRv5XE8WnniG2f3Z3-91" value="&lt;b&gt;&lt;i&gt;module_init(mod_2_init)&lt;/i&gt;&lt;/b&gt;" style="text;html=1;align=center;verticalAlign=middle;resizable=0;points=[];autosize=1;" vertex="1" parent="1">
          <mxGeometry x="-40" y="-40" width="150" height="20" as="geometry" />
        </mxCell>
        <mxCell id="_XcDRv5XE8WnniG2f3Z3-92" value="&lt;span&gt;bpf_unsafe_mod_register(mod_2)&lt;/span&gt;" style="rounded=1;whiteSpace=wrap;html=1;shadow=1;" vertex="1" parent="1">
          <mxGeometry x="-50" y="-15" width="200" height="30" as="geometry" />
        </mxCell>
        <mxCell id="_XcDRv5XE8WnniG2f3Z3-93" value="" style="rounded=1;whiteSpace=wrap;html=1;shadow=1;" vertex="1" parent="1">
          <mxGeometry x="-70" y="30" width="240" height="200" as="geometry" />
        </mxCell>
        <mxCell id="_XcDRv5XE8WnniG2f3Z3-94" value="&lt;b&gt;&lt;i&gt;int mod_2(struct bpf_unsafe_ctx *ctx)&lt;/i&gt;&lt;/b&gt;" style="text;html=1;align=center;verticalAlign=middle;resizable=0;points=[];autosize=1;" vertex="1" parent="1">
          <mxGeometry x="-70" y="40" width="230" height="20" as="geometry" />
        </mxCell>
        <mxCell id="_XcDRv5XE8WnniG2f3Z3-95" value="if ctx-&amp;gt;mod != 1 || ctx-&amp;gt;data_len != 4&lt;br&gt;return -1" style="rounded=1;whiteSpace=wrap;html=1;shadow=1;" vertex="1" parent="1">
          <mxGeometry x="-55" y="70" width="210" height="40" as="geometry" />
        </mxCell>
        <mxCell id="_XcDRv5XE8WnniG2f3Z3-96" value="&lt;div style=&quot;text-align: left&quot;&gt;&lt;span&gt;switch ctx-&amp;gt;cmd {&lt;/span&gt;&lt;/div&gt;&lt;div style=&quot;text-align: left&quot;&gt;&lt;span&gt;&amp;nbsp; case 0:&lt;/span&gt;&lt;/div&gt;&lt;div style=&quot;text-align: left&quot;&gt;&lt;span&gt;&amp;nbsp; &amp;nbsp; return cmd_0_handler(ctx-&amp;gt;data)&lt;/span&gt;&lt;/div&gt;&lt;div style=&quot;text-align: left&quot;&gt;&lt;span&gt;&amp;nbsp; default:&lt;/span&gt;&lt;/div&gt;&lt;div style=&quot;text-align: left&quot;&gt;&lt;span&gt;&amp;nbsp; &amp;nbsp; return -1&lt;/span&gt;&lt;/div&gt;&lt;div style=&quot;text-align: left&quot;&gt;&lt;span&gt;}&lt;/span&gt;&lt;/div&gt;" style="rounded=1;whiteSpace=wrap;html=1;shadow=1;" vertex="1" parent="1">
          <mxGeometry x="-55" y="120" width="210" height="100" as="geometry" />
        </mxCell>
        <mxCell id="_XcDRv5XE8WnniG2f3Z3-97" value="" style="endArrow=classic;html=1;entryX=0;entryY=0.25;entryDx=0;entryDy=0;exitX=1;exitY=0.5;exitDx=0;exitDy=0;dashed=1;" edge="1" parent="1" source="_XcDRv5XE8WnniG2f3Z3-90" target="_XcDRv5XE8WnniG2f3Z3-14">
          <mxGeometry width="50" height="50" relative="1" as="geometry">
            <mxPoint x="440" y="230" as="sourcePoint" />
            <mxPoint x="490" y="180" as="targetPoint" />
            <Array as="points">
              <mxPoint x="200" y="-10" />
              <mxPoint x="210" y="-47" />
            </Array>
          </mxGeometry>
        </mxCell>
        <mxCell id="_XcDRv5XE8WnniG2f3Z3-99" value="" style="endArrow=classic;html=1;dashed=1;entryX=0;entryY=0.25;entryDx=0;entryDy=0;exitX=1;exitY=0.5;exitDx=0;exitDy=0;" edge="1" parent="1" source="_XcDRv5XE8WnniG2f3Z3-36" target="_XcDRv5XE8WnniG2f3Z3-25">
          <mxGeometry width="50" height="50" relative="1" as="geometry">
            <mxPoint x="430" y="220" as="sourcePoint" />
            <mxPoint x="480" y="170" as="targetPoint" />
            <Array as="points">
              <mxPoint x="220" y="274" />
            </Array>
          </mxGeometry>
        </mxCell>
        <mxCell id="_XcDRv5XE8WnniG2f3Z3-100" value="" style="endArrow=classic;html=1;dashed=1;exitX=0;exitY=0.75;exitDx=0;exitDy=0;entryX=1;entryY=0.5;entryDx=0;entryDy=0;" edge="1" parent="1" source="_XcDRv5XE8WnniG2f3Z3-9" target="_XcDRv5XE8WnniG2f3Z3-93">
          <mxGeometry width="50" height="50" relative="1" as="geometry">
            <mxPoint x="430" y="180" as="sourcePoint" />
            <mxPoint x="480" y="130" as="targetPoint" />
            <Array as="points">
              <mxPoint x="210" y="214" />
              <mxPoint x="210" y="130" />
            </Array>
          </mxGeometry>
        </mxCell>
        <mxCell id="_XcDRv5XE8WnniG2f3Z3-104" value="③" style="edgeLabel;html=1;align=center;verticalAlign=middle;resizable=0;points=[];" vertex="1" connectable="0" parent="_XcDRv5XE8WnniG2f3Z3-100">
          <mxGeometry x="-0.5392" relative="1" as="geometry">
            <mxPoint as="offset" />
          </mxGeometry>
        </mxCell>
        <mxCell id="_XcDRv5XE8WnniG2f3Z3-8" value="ctx-&amp;gt;mod" style="rounded=1;whiteSpace=wrap;html=1;shadow=1;align=center;" vertex="1" parent="1">
          <mxGeometry x="370" y="130" width="104.34" height="20" as="geometry" />
        </mxCell>
        <mxCell id="_XcDRv5XE8WnniG2f3Z3-101" value="" style="endArrow=classic;html=1;dashed=1;exitX=0;exitY=0.5;exitDx=0;exitDy=0;entryX=1;entryY=0.5;entryDx=0;entryDy=0;" edge="1" parent="1" source="_XcDRv5XE8WnniG2f3Z3-43" target="_XcDRv5XE8WnniG2f3Z3-1">
          <mxGeometry width="50" height="50" relative="1" as="geometry">
            <mxPoint x="630" y="220" as="sourcePoint" />
            <mxPoint x="680" y="170" as="targetPoint" />
            <Array as="points">
              <mxPoint x="780" y="175" />
            </Array>
          </mxGeometry>
        </mxCell>
        <mxCell id="_XcDRv5XE8WnniG2f3Z3-105" value="" style="endArrow=none;html=1;dashed=1;entryX=1;entryY=0.5;entryDx=0;entryDy=0;exitX=1;exitY=0.5;exitDx=0;exitDy=0;" edge="1" parent="1" source="_XcDRv5XE8WnniG2f3Z3-62" target="_XcDRv5XE8WnniG2f3Z3-71">
          <mxGeometry width="50" height="50" relative="1" as="geometry">
            <mxPoint x="800" y="190" as="sourcePoint" />
            <mxPoint x="850" y="140" as="targetPoint" />
            <Array as="points">
              <mxPoint x="1080" y="310" />
              <mxPoint x="1080" y="50" />
            </Array>
          </mxGeometry>
        </mxCell>
      </root>
    </mxGraphModel>
  </diagram>
</mxfile>
